<?xml version="1.0" encoding="utf-8"?>
<!-- Generator: Adobe Illustrator 28.2.0, SVG Export Plug-In . SVG Version: 6.00 Build 0)  -->
<svg version="1.1" id="Layer_1" xmlns="http://www.w3.org/2000/svg" xmlns:xlink="http://www.w3.org/1999/xlink" x="0px" y="0px"
	 viewBox="0 0 2000.16 2000.16" style="enable-background:new 0 0 2000.16 2000.16;" xml:space="preserve">
<style type="text/css">
	.st0{fill:#61BDDB;}
	.st1{fill:#023863;}
	.st2{fill:#4689A6;}
</style>
<g>
	<g>
		<g>
			<path class="st0" d="M988.91,28.15C457.96,34.14,29.39,466.4,29.39,998.77c0,118.25,21.16,231.56,59.87,336.36h243.68
				c455.86,0,815.78-362.96,815.78-818.83C1148.72,333.64,1089.35,164.87,988.91,28.15z"/>
			<path class="st0" d="M166.56,1335.13c-42.62-104.69-66.16-219.19-66.16-339.19c0-497.18,403.05-900.23,900.23-900.23
				s900.23,403.05,900.23,900.23c0,78.44-10.06,154.54-28.91,227.08l70.9,7.78c18.24-74.35,27.91-152.06,27.91-232.03
				c0-536.1-434.59-970.69-970.69-970.69S29.39,462.67,29.39,998.77c0,118.25,21.16,231.56,59.87,336.36H166.56z"/>
			<path class="st0" d="M982.08,133.54c0,0,417.8,168.17,444.08,601.73c18.39,323.2-110.36,483.49-110.36,483.49l86.71-8.01
				c0,0,127.09-210.19,100.69-456.55c-26.4-246.36-134.91-515.2-475.12-675.53C942.05,89.43,982.08,133.54,982.08,133.54z"/>
		</g>
	</g>
	<path class="st1" d="M854.92,1592.93c-234.45,42.15-498.55,53.5-579.38,56.11c178.33,198.32,436.89,323.05,724.59,323.05
		c341.88,0,642.61-176.12,816.46-442.57C1443.5,1493.76,1130.9,1543.31,854.92,1592.93z"/>
	<path class="st2" d="M1926.37,1300.54c-100.43-9.69-419.56-35.25-672.59,2.13c-304.34,44.96-519.92,100.29-851.93,107.21
		c-155.31,3.24-237.96,4.96-281.95,5.87c25.99,54.66,56.92,106.53,92.22,155c99.81-1.87,365.4-10.47,601.29-49.97
		c297.43-49.81,416.17-85.54,805.82-82.09c93.29,1.06,174.1,7.69,241.35,16.37C1886.74,1405.92,1908.83,1354.26,1926.37,1300.54z"/>
</g>
</svg>
