<?xml version="1.0" encoding="UTF-8" standalone="no"?>
<!DOCTYPE svg PUBLIC "-//W3C//DTD SVG 1.1//EN" "http://www.w3.org/Graphics/SVG/1.1/DTD/svg11.dtd">
<svg width="100%" height="100%" viewBox="0 0 2001 2001" version="1.1" xmlns="http://www.w3.org/2000/svg" xmlns:xlink="http://www.w3.org/1999/xlink" xml:space="preserve" xmlns:serif="http://www.serif.com/" style="fill-rule:evenodd;clip-rule:evenodd;stroke-linejoin:round;stroke-miterlimit:2;">
    <g>
        <g transform="matrix(1.07237,0,0,1.0917,-174.312,-211.587)">
            <ellipse cx="1095.13" cy="1109.88" rx="905.183" ry="890.354" style="fill:white;"/>
        </g>
        <g>
            <g>
                <path d="M988.91,28.15C457.96,34.14 29.39,466.4 29.39,998.77C29.39,1117.02 50.55,1230.33 89.26,1335.13L332.94,1335.13C788.8,1335.13 1148.72,972.17 1148.72,516.3C1148.72,333.64 1089.35,164.87 988.91,28.15Z" style="fill:rgb(97,189,219);fill-rule:nonzero;"/>
                <path d="M166.56,1335.13C123.94,1230.44 100.4,1115.94 100.4,995.94C100.4,498.76 503.45,95.71 1000.63,95.71C1497.81,95.71 1900.86,498.76 1900.86,995.94C1900.86,1074.38 1890.8,1150.48 1871.95,1223.02L1942.85,1230.8C1961.09,1156.45 1970.76,1078.74 1970.76,998.77C1970.76,462.67 1536.17,28.08 1000.07,28.08C463.97,28.08 29.39,462.67 29.39,998.77C29.39,1117.02 50.55,1230.33 89.26,1335.13L166.56,1335.13Z" style="fill:rgb(97,189,219);fill-rule:nonzero;"/>
                <path d="M982.08,133.54C982.08,133.54 1399.88,301.71 1426.16,735.27C1444.55,1058.47 1315.8,1218.76 1315.8,1218.76L1402.51,1210.75C1402.51,1210.75 1529.6,1000.56 1503.2,754.2C1476.8,507.84 1368.29,239 1028.08,78.67C942.05,89.43 982.08,133.54 982.08,133.54Z" style="fill:rgb(97,189,219);fill-rule:nonzero;"/>
            </g>
        </g>
        <path d="M854.92,1592.93C620.47,1635.08 356.37,1646.43 275.54,1649.04C453.87,1847.36 712.43,1972.09 1000.13,1972.09C1342.01,1972.09 1642.74,1795.97 1816.59,1529.52C1443.5,1493.76 1130.9,1543.31 854.92,1592.93Z" style="fill:rgb(2,56,99);fill-rule:nonzero;"/>
        <path d="M1926.37,1300.54C1825.94,1290.85 1506.81,1265.29 1253.78,1302.67C949.44,1347.63 733.86,1402.96 401.85,1409.88C246.54,1413.12 163.89,1414.84 119.9,1415.75C145.89,1470.41 176.82,1522.28 212.12,1570.75C311.93,1568.88 577.52,1560.28 813.41,1520.78C1110.84,1470.97 1229.58,1435.24 1619.23,1438.69C1712.52,1439.75 1793.33,1446.38 1860.58,1455.06C1886.74,1405.92 1908.83,1354.26 1926.37,1300.54Z" style="fill:rgb(70,137,166);fill-rule:nonzero;"/>
    </g>
</svg>
